# xmcd
#
# Track frame offsets: 
#        150
#        11594
#        26970
#        44923
#        71467
#        94751
#        115187
#        129724
#        154605
#        175271
#
# Disc length: 2578 seconds
#
# Revision: 0
# Processed by: cddbd v1.5.2PL0 Copyright (c) Steve Scherf et al.
# Submitted via: ExactAudioCopy v1.0b3
#
DISCID=870a100a
DTITLE=Perpetrators - Stick "Em Up
DYEAR=2013
DGENRE=Rock
TTITLE0=Sweetgrass
TTITLE1=Spend More Money
TTITLE2=You've Got To Tell Me
TTITLE3=Smokes "N Chicken
TTITLE4=Tired Of Tryin To Keep My Cool
TTITLE5=I Must Be Crazy
TTITLE6=Who's It Going To Be?
TTITLE7=Shake It
TTITLE8=Bad Man
TTITLE9=Take You On
EXTD=
EXTT0=
EXTT1=
EXTT2=
EXTT3=
EXTT4=
EXTT5=
EXTT6=
EXTT7=
EXTT8=
EXTT9=
PLAYORDER=
